<svg width="404" height="64" viewBox="0 0 404 64" fill="none" xmlns="http://www.w3.org/2000/svg">
<g clip-path="url(#clip0_236_1373)">
<path d="M99.595 47.7531C92.4775 47.7531 86.6861 41.9586 86.6861 34.8387C86.6861 27.7177 92.4787 21.9232 99.595 21.9232C106.712 21.9232 112.506 27.7177 112.506 34.8387C112.506 41.9586 106.712 47.7531 99.595 47.7531ZM99.595 13.8338C94.7322 13.8338 90.243 15.4935 86.6861 18.2839V3.6084H78.5981V34.8387C78.5981 46.4373 88.0002 55.8436 99.5961 55.8436C111.193 55.8436 120.594 46.4373 120.594 34.8387C120.594 23.239 111.193 13.8326 99.5961 13.8326L99.595 13.8338Z" fill="#FFCE00"/>
<path d="M146.464 21.9245C151.731 21.9245 156.271 25.0994 158.282 29.6402H134.645C136.658 25.0982 141.197 21.9245 146.464 21.9245ZM167.32 37.1958C167.422 36.4269 167.463 35.6377 167.463 34.8401C167.463 23.2403 158.06 13.834 146.464 13.834C134.869 13.834 125.466 23.2403 125.466 34.8401C125.466 46.4386 134.869 55.845 146.464 55.845C155.745 55.845 163.63 49.8176 166.4 41.4537H157.545C155.29 45.2267 151.165 47.7544 146.464 47.7544C140.155 47.7544 134.879 43.1933 133.776 37.197H167.322L167.32 37.1958Z" fill="#FFCE00"/>
<path d="M193.334 21.9245C198.601 21.9245 203.141 25.0994 205.153 29.6402H181.515C183.527 25.0982 188.068 21.9245 193.334 21.9245ZM214.19 37.1958C214.291 36.4269 214.332 35.6377 214.332 34.8401C214.332 23.2403 204.931 13.834 193.334 13.834C181.738 13.834 172.336 23.2403 172.336 34.8401C172.336 46.4386 181.737 55.845 193.334 55.845C202.614 55.845 210.501 49.8176 213.271 41.4537H204.415C202.161 45.2267 198.036 47.7544 193.334 47.7544C187.026 47.7544 181.748 43.1933 180.646 37.197H214.191L214.19 37.1958Z" fill="#FFCE00"/>
<path d="M6.3572 15.5692C6.11848 15.5692 5.87857 15.5262 5.64342 15.4366L1.30823 13.8021C0.262624 13.408 -0.262565 12.2391 0.130134 11.1967C0.525219 10.1496 1.69376 9.62543 2.73579 10.0171L7.06979 11.6528C8.11539 12.0481 8.64178 13.2146 8.24788 14.2594C7.94351 15.0689 7.17244 15.5692 6.3572 15.5692ZM10.0132 2.73842C9.61815 1.69128 10.1469 0.524738 11.1901 0.130717C12.2345 -0.264498 13.4031 0.263252 13.7958 1.3092L15.431 5.64462C15.8249 6.69176 15.2985 7.85711 14.2529 8.25113C14.019 8.34068 13.7767 8.38128 13.5404 8.38128C12.7239 8.38128 11.9529 7.88218 11.6485 7.07384L10.0132 2.73723V2.73842ZM59.7128 31.0435C58.635 36.2803 53.6409 40.2635 46.453 41.7943C46.6153 38.5752 46.3587 35.2702 45.6712 31.9282C45.2307 29.7957 44.6172 27.6979 43.8485 25.6943C43.8223 25.6131 43.7924 25.5343 43.7542 25.4567C42.7958 23.0006 41.6213 20.7297 40.2653 18.6843C39.505 17.2396 38.5465 16.0157 37.4174 15.0235C36.737 14.2785 36.0328 13.58 35.2975 12.9364C35.282 12.9185 35.2712 12.9006 35.2557 12.8839C35.2187 12.8468 35.1758 12.8218 35.1376 12.7883L35.1364 12.786C35.1364 12.786 35.1352 12.786 35.1352 12.7848C35.1256 12.7764 35.1149 12.7704 35.1053 12.7609C33.71 11.5537 32.2514 10.5663 30.7582 9.80453C33.4772 9.7114 36.3192 9.94423 39.1732 10.5376C45.6557 11.8773 51.3719 14.8361 55.2702 18.8694C58.9668 22.6986 60.546 27.0197 59.714 31.0399L59.7128 31.0435ZM31.0291 59.7342C27.0091 60.5616 22.693 58.9867 18.8651 55.2877C14.833 51.3905 11.8753 45.6724 10.5348 39.1877V39.1866C9.94639 36.3317 9.71483 33.4947 9.80674 30.7772C10.5707 32.2792 11.5637 33.7443 12.7812 35.146C12.7824 35.1484 12.7836 35.152 12.786 35.1544C12.8015 35.1723 12.8194 35.1878 12.8349 35.2069C12.8516 35.2272 12.8648 35.2487 12.8827 35.2678C12.891 35.2762 12.9018 35.2822 12.9101 35.2905C13.5559 36.0272 14.2577 36.7329 15.0049 37.4147C16.0016 38.5513 17.2322 39.5173 18.6836 40.2815C20.7689 41.6653 23.0833 42.8641 25.5851 43.83C27.625 44.6169 29.7556 45.2437 31.9196 45.6903C34.6195 46.2455 37.2956 46.5225 39.9216 46.5225C40.5458 46.5225 41.1653 46.4974 41.7812 46.4664C40.257 53.6507 36.2727 58.6512 31.0291 59.7353V59.7342ZM14.5072 30.7808C12.373 27.6656 11.5554 24.3344 12.1928 21.2299C12.4685 19.9058 12.9794 18.6724 13.6812 17.6026L13.9545 17.205C14.3162 16.7023 14.6886 16.2474 15.0873 15.8247C15.2054 15.6934 15.326 15.5668 15.4525 15.439C15.5779 15.316 15.7068 15.1931 15.8452 15.0677C16.2439 14.694 16.6998 14.3202 17.2656 13.9131C17.3265 13.8641 17.3945 13.8176 17.4614 13.7758C17.49 13.7579 17.5127 13.7435 17.5509 13.7197C18.6645 12.9877 19.8999 12.4743 21.2153 12.1997C21.904 12.0576 22.6046 11.9872 23.3113 11.9872C25.7904 11.9872 28.3459 12.8528 30.7677 14.5125L14.5072 30.7808ZM32.7336 41.7262C31.8301 41.5387 30.9337 41.3178 30.048 41.0635L41.0483 30.0596C41.3026 30.9432 41.5234 31.841 41.7096 32.7449C42.384 36.0236 42.6 39.2546 42.3649 42.3793C39.2424 42.6157 36.0101 42.3996 32.7336 41.7262ZM58.1755 16.0623C53.7197 11.4499 47.2599 8.08039 39.9908 6.57953C30.8036 4.6727 21.5901 6.06969 15.3439 10.3287C15.1601 10.4421 14.9846 10.5627 14.8665 10.657C14.8557 10.663 14.8438 10.6702 14.8342 10.6773C14.1861 11.1287 13.6048 11.6051 13.0999 12.097C12.743 12.4194 12.4124 12.7525 12.1391 13.0558C12.1367 13.0582 12.1343 13.0618 12.1319 13.0642L12.1164 13.0797C12.0889 13.1095 12.0603 13.1465 12.0328 13.1752C11.5315 13.7018 11.072 14.2605 10.6399 14.8886L10.3534 15.3053C10.351 15.3089 10.3486 15.3137 10.3451 15.3184L10.3307 15.3375C10.3272 15.3447 10.3224 15.3519 10.3188 15.3578C6.07432 21.5989 4.67421 30.8058 6.57205 40.0068V40.0056C8.076 47.2795 11.4432 53.7403 16.0553 58.1963C19.9882 61.9992 24.4512 64.0003 28.8771 64.0003C29.8725 64.0003 30.862 63.8988 31.8444 63.6959C39.0466 62.2069 44.3678 55.4835 45.9851 46.0031C55.4695 44.3781 62.1896 39.054 63.6696 31.8613C64.7809 26.4943 62.8293 20.8825 58.1743 16.0635L58.1755 16.0623Z" fill="#FFCE00"/>
<path d="M228.95 54.8578V21.6156H221.054V17.2885H228.95V4.03271H233.757V17.2885H242.752V21.6156H233.757V54.8578H228.95ZM247.832 54.8578V17.2885H252.639V54.8578H247.832ZM247.832 12.6868V4.03271H252.639V12.6868H247.832ZM293.49 43.8002H298.776C294.657 51.7678 288.431 55.751 280.101 55.751C274.334 55.751 269.504 53.782 265.614 49.8442C261.815 46.0437 259.916 41.4647 259.916 36.1084C259.916 30.6602 261.884 26.0012 265.821 22.1314C269.757 18.2628 274.517 16.3274 280.102 16.3274C283.855 16.3274 287.334 17.2432 290.538 19.0748C294.337 21.2729 297.084 24.4549 298.778 28.622H293.491C292.072 25.9666 290.081 23.9284 287.517 22.5087C285.274 21.2729 282.849 20.6544 280.24 20.6544C276.258 20.6544 272.756 21.9822 269.735 24.6376C266.394 27.5677 264.723 31.3455 264.723 35.9699C264.723 40.2743 266.199 43.9256 269.151 46.9249C272.103 49.9242 275.799 51.4239 280.24 51.4239C286.419 51.4239 290.837 48.883 293.491 43.8002H293.49ZM306.33 54.8578V4.03391H311.135V40.2289L328.746 17.2897H334.96L320.129 36.2457L335.714 54.859H329.535L317.176 40.0236L311.134 47.7165V54.859H306.328L306.33 54.8578ZM377.803 37.8254H343.611C343.793 41.4886 345.35 44.6814 348.279 47.4061C351.208 50.1308 354.504 51.4693 358.166 51.4239C361.461 51.3785 364.345 50.4854 366.817 48.7457C369.105 47.0968 370.708 45.0372 371.624 42.5644H376.705C375.378 46.4103 373.066 49.5469 369.77 51.9743C366.337 54.4925 362.491 55.7521 358.235 55.7521C352.926 55.7521 348.336 53.8525 344.469 50.0508C340.602 46.2503 338.667 41.6032 338.667 36.1084C338.667 30.7509 340.566 26.1265 344.365 22.2353C348.164 18.344 352.765 16.3751 358.166 16.3286C361.965 16.2832 365.443 17.2897 368.602 19.3506C371.211 21.0902 373.316 23.2884 374.918 25.9439C377.069 29.5605 378.031 33.5222 377.802 37.8254H377.803ZM343.611 33.4983H372.928C372.242 29.3778 370.342 26.1265 367.23 23.7457C364.575 21.6849 361.577 20.6556 358.235 20.6556C354.939 20.6556 351.941 21.686 349.241 23.7457C346.128 26.1265 344.252 29.3778 343.611 33.4983ZM389.475 54.859V21.6168H381.58V17.2897H389.475V4.03391H394.282V17.2897H403.277V21.6168H394.282V54.859H389.475Z" fill="#FFCE00"/>
</g>
<defs>
<clipPath id="clip0_236_1373">
<rect width="403.277" height="64" fill="white"/>
</clipPath>
</defs>
</svg>
